<svg id="Layer_2" data-name="Layer 2" xmlns="http://www.w3.org/2000/svg" viewBox="0 0 190.51 152.78"><defs><style>.cls-1{fill:#f08bff;stroke:#9800d0;stroke-miterlimit:10;stroke-width:6px;}</style></defs><path class="cls-1" d="M99.43,170.32a4.69,4.69,0,0,1-2.54-1.22l-5.21-3.77c-3.28-3-8.77-5.76-12.18-7.74-8-4.66-21-14.64-30.55-22.7C36.08,124,27.54,116.73,19.5,104.34c-4.56-7-8.71-12.84-10.74-21.92A51,51,0,0,1,10,55.63c1.49-4.58,5.31-15.76,16.39-23.58a44.49,44.49,0,0,1,19.7-7.42,55.2,55.2,0,0,1,21.26,1,47.28,47.28,0,0,1,13.28,5.21,48.3,48.3,0,0,1,9.85,7.75c4,4.1,6.17,6.27,7.64,10,.38.94,1.2,3.2,1.77,3.1s.29-1.68,1.22-3.76a13.69,13.69,0,0,1,1.77-2.66c2.74-3.69,2.45-3.94,3.88-5.54a24.9,24.9,0,0,1,4.09-3.43,58.76,58.76,0,0,1,6-3.87,77.48,77.48,0,0,1,14.06-6.64,50.06,50.06,0,0,1,26.9-.67,41.48,41.48,0,0,1,18.38,9.41c5,4.61,7.45,9.34,10.41,15.17,4.49,8.85,5.16,14.85,5.31,16.38a42.28,42.28,0,0,1,.11,6.2,48.69,48.69,0,0,1-2.77,13.4A79.66,79.66,0,0,1,180,104.11a113,113,0,0,1-12.74,15.5c-9.7,10.21-18.14,16.71-31.66,27.13-4.44,3.42-8.8,6.76-14.06,10.18-3.23,2.1-5.72,3.53-9.08,5.87a29.57,29.57,0,0,1-4.48,2.9,17,17,0,0,0-2.93,1.64c-.85.59-.78.66-1.55,1.22C102.33,169.4,100.93,170.4,99.43,170.32Z" transform="translate(-4.53 -20.54)"/><path class="cls-1" d="M192,143.79" transform="translate(-4.53 -20.54)"/></svg>