<svg xmlns="http://www.w3.org/2000/svg" viewBox="0 0 190.51 152.78"><defs><style>.cls-1{fill:#f08bff;stroke:#9800d0;stroke-miterlimit:10;stroke-width:6px;}</style></defs><g id="Layer_2" data-name="Layer 2"><g id="Layer_2-2" data-name="Layer 2"><path class="cls-1" d="M187.34,45.5C187.2,44,186.52,38,182,29.11c-3-5.82-5.36-10.55-10.41-15.17a41.46,41.46,0,0,0-18.37-9.41,50.21,50.21,0,0,0-26.91.67,78.84,78.84,0,0,0-14.06,6.64,59.66,59.66,0,0,0-6,3.88,24.14,24.14,0,0,0-4.1,3.43c-1.43,1.59-1.14,1.84-3.87,5.53a13.38,13.38,0,0,0-1.78,2.66c-.93,2.08-.74,3.68-1.21,3.76S94,28.94,93.58,28C92.1,24.31,90,22.15,85.94,18a48.26,48.26,0,0,0-9.86-7.75A47.17,47.17,0,0,0,62.8,5.09a55.08,55.08,0,0,0-21.26-1,44.61,44.61,0,0,0-19.7,7.42C10.76,19.33,7,30.51,5.45,35.09A51,51,0,0,0,4.24,61.88C6.26,71,10.41,76.75,15,83.8c8,12.39,16.58,19.64,29.45,30.55C53.93,122.41,67,132.4,75,137.05c3.4,2,8.89,4.74,12.17,7.75l5.21,3.76a4.62,4.62,0,0,0,2.54,1.22c1.5.08,2.9-.92,4.1-1.77.77-.55.7-.63,1.55-1.22a17.36,17.36,0,0,1,2.93-1.64,29.58,29.58,0,0,0,4.49-2.9c3.35-2.34,5.84-3.76,9.07-5.87,5.26-3.41,9.62-6.76,14.06-10.18,13.53-10.41,22-16.92,31.67-27.12a114,114,0,0,0,12.73-15.5,80,80,0,0,0,9.19-18.49,48.88,48.88,0,0,0,2.76-13.4A42.06,42.06,0,0,0,187.34,45.5Z"/></g></g></svg>