<?xml version="1.0" ?><!DOCTYPE svg  PUBLIC '-//W3C//DTD SVG 1.1//EN'  'http://www.w3.org/Graphics/SVG/1.1/DTD/svg11.dtd'><svg enable-background="new 0 0 512 512" id="Layer_1" version="1.1" viewBox="0 0 512 512" xml:space="preserve" xmlns="http://www.w3.org/2000/svg" xmlns:xlink="http://www.w3.org/1999/xlink"><g><path d="M258.8,507.2C120.4,507.8,6.6,392.6,9.9,251.9C13,118,123.9,7.2,261.9,8.7C398.7,10.1,511.8,124,508.1,264.8   C504.6,398.2,394.6,507.8,258.8,507.2z M477.8,257.8C476.7,132.4,375.1,35.9,255.2,38C138.6,40,40.1,135.2,40.4,258.4   C40.7,383.9,143.1,480.2,263,478C379.5,475.8,477,380.8,477.8,257.8z"/><path d="M99,230.2c10.3,2.9,20.3,5.8,30.4,8.6c0.3-0.5,0.6-1.1,0.9-1.6c-20.1-15.5-31-35.4-30.5-60.9c0.2-13.2,4.1-27.1,9.8-34.2   c39,45.3,87.9,70.9,147,74.7c0.5-10.9-0.1-21.3,1.6-31.3c7.3-42.1,55.6-68.6,95.4-53c9.4,3.7,17.8,8.9,25.4,15.6   c1.5,1.3,4.6,2.4,6.4,1.8c12.1-4.1,24-8.6,36-13.1c1.7-0.6,3.2-1.6,5.8-3c-5.5,16.9-15.7,28.9-28.8,39.4c4.1-0.7,8.2-1.3,12.2-2.2   c4.4-1,8.7-2.3,13-3.7c4-1.3,8-2.8,13.1-4.7c-9,13.5-19.1,24.2-30.9,33.3c-3.4,2.6-4.7,5.1-4.7,9.5c0.5,55.5-18.3,103.8-55.2,144.8   c-28.8,32-64.9,51.9-107.3,60.1c-32.1,6.2-63.9,5.6-95.6-2.7c-19.4-5.1-37.7-13.1-54.8-23.6c-0.5-0.3-0.9-0.8-1.9-1.7   c38.9,3.3,73.5-6.1,105.2-29.9c-33.1-3.2-55-19.6-67.3-50.5c10.7,0,20.5,0,30.3,0c0.1-0.5,0.2-1.1,0.3-1.6   c-20.6-5.6-36.5-17.4-46.9-36.1C101.8,253.5,99.1,242,99,230.2z"/></g></svg>